<?xml version="1.0" encoding="UTF-8"?>
<svg xmlns="http://www.w3.org/2000/svg" xmlns:xlink="http://www.w3.org/1999/xlink" width="720pt" height="360pt" viewBox="0 0 720 360" version="1.1">
<defs>
<g>
<symbol overflow="visible" id="glyph0-0">
<path style="stroke:none;" d=""/>
</symbol>
<symbol overflow="visible" id="glyph0-1">
<path style="stroke:none;" d="M 2.4375 -6.484375 C 1.90625 -6.484375 1.5 -6.328125 1.15625 -5.984375 C 0.59375 -5.453125 0.234375 -4.34375 0.234375 -3.21875 C 0.234375 -2.171875 0.546875 -1.0625 1 -0.515625 C 1.359375 -0.09375 1.84375 0.140625 2.390625 0.140625 C 2.890625 0.140625 3.296875 -0.03125 3.640625 -0.359375 C 4.203125 -0.890625 4.5625 -2 4.5625 -3.171875 C 4.5625 -5.125 3.6875 -6.484375 2.4375 -6.484375 Z M 2.40625 -6.234375 C 3.21875 -6.234375 3.640625 -5.15625 3.640625 -3.140625 C 3.640625 -1.140625 3.21875 -0.109375 2.390625 -0.109375 C 1.578125 -0.109375 1.15625 -1.140625 1.15625 -3.140625 C 1.15625 -5.1875 1.578125 -6.234375 2.40625 -6.234375 Z M 2.40625 -6.234375 "/>
</symbol>
<symbol overflow="visible" id="glyph0-2">
<path style="stroke:none;" d="M 1.203125 -0.953125 C 0.90625 -0.953125 0.671875 -0.71875 0.671875 -0.40625 C 0.671875 -0.140625 0.90625 0.109375 1.1875 0.109375 C 1.484375 0.109375 1.734375 -0.125 1.734375 -0.40625 C 1.734375 -0.703125 1.484375 -0.953125 1.203125 -0.953125 Z M 1.203125 -0.953125 "/>
</symbol>
<symbol overflow="visible" id="glyph0-3">
<path style="stroke:none;" d="M 0.5625 0.21875 C 1.640625 0.09375 2.171875 -0.09375 2.828125 -0.5625 C 3.8125 -1.296875 4.40625 -2.484375 4.40625 -3.78125 C 4.40625 -5.359375 3.53125 -6.484375 2.28125 -6.484375 C 1.140625 -6.484375 0.28125 -5.515625 0.28125 -4.21875 C 0.28125 -3.046875 0.984375 -2.28125 2.015625 -2.28125 C 2.546875 -2.28125 2.9375 -2.421875 3.453125 -2.828125 C 3.0625 -1.25 2 -0.234375 0.53125 0.015625 Z M 3.46875 -3.40625 C 3.46875 -3.21875 3.4375 -3.125 3.328125 -3.046875 C 3.0625 -2.828125 2.703125 -2.6875 2.359375 -2.6875 C 1.625 -2.6875 1.171875 -3.40625 1.171875 -4.546875 C 1.171875 -5.09375 1.328125 -5.671875 1.53125 -5.921875 C 1.6875 -6.109375 1.921875 -6.21875 2.203125 -6.21875 C 3.046875 -6.21875 3.46875 -5.390625 3.46875 -3.78125 Z M 3.46875 -3.40625 "/>
</symbol>
<symbol overflow="visible" id="glyph0-4">
<path style="stroke:none;" d="M 1.125 0 L 3.78125 0 L 3.78125 -0.140625 C 3.046875 -0.140625 2.875 -0.25 2.875 -0.703125 L 2.875 -6.46875 L 2.796875 -6.484375 L 1.0625 -5.609375 L 1.0625 -5.484375 C 1.4375 -5.625 1.671875 -5.6875 1.75 -5.6875 C 1.953125 -5.6875 2.046875 -5.546875 2.046875 -5.234375 L 2.046875 -0.890625 C 2.03125 -0.28125 1.859375 -0.15625 1.125 -0.140625 Z M 1.125 0 "/>
</symbol>
<symbol overflow="visible" id="glyph0-5">
<path style="stroke:none;" d="M 4.5625 -1.3125 L 4.4375 -1.359375 C 4.078125 -0.8125 3.96875 -0.734375 3.515625 -0.734375 L 1.234375 -0.734375 L 2.84375 -2.421875 C 3.6875 -3.3125 4.0625 -4.03125 4.0625 -4.78125 C 4.0625 -5.75 3.296875 -6.484375 2.296875 -6.484375 C 1.765625 -6.484375 1.265625 -6.28125 0.90625 -5.890625 C 0.609375 -5.5625 0.453125 -5.25 0.296875 -4.578125 L 0.5 -4.53125 C 0.875 -5.46875 1.21875 -5.78125 1.890625 -5.78125 C 2.703125 -5.78125 3.25 -5.234375 3.25 -4.421875 C 3.25 -3.671875 2.796875 -2.78125 2 -1.921875 L 0.28125 -0.109375 L 0.28125 0 L 4.03125 0 Z M 4.5625 -1.3125 "/>
</symbol>
<symbol overflow="visible" id="glyph0-6">
<path style="stroke:none;" d="M 1.734375 -5.59375 L 3.609375 -5.59375 C 3.78125 -5.59375 3.8125 -5.609375 3.84375 -5.671875 L 4.203125 -6.53125 L 4.109375 -6.59375 C 3.96875 -6.40625 3.890625 -6.34375 3.671875 -6.34375 L 1.671875 -6.34375 L 0.625 -4.078125 C 0.609375 -4.0625 0.609375 -4.046875 0.609375 -4.03125 C 0.609375 -3.96875 0.65625 -3.953125 0.734375 -3.953125 C 1.03125 -3.953125 1.40625 -3.890625 1.8125 -3.765625 C 2.921875 -3.40625 3.421875 -2.828125 3.421875 -1.859375 C 3.421875 -0.9375 2.84375 -0.21875 2.078125 -0.21875 C 1.890625 -0.21875 1.734375 -0.28125 1.453125 -0.5 C 1.140625 -0.734375 0.9375 -0.8125 0.703125 -0.8125 C 0.4375 -0.8125 0.3125 -0.703125 0.3125 -0.453125 C 0.3125 -0.09375 0.75 0.140625 1.484375 0.140625 C 2.28125 0.140625 2.96875 -0.125 3.453125 -0.609375 C 3.890625 -1.046875 4.09375 -1.59375 4.09375 -2.328125 C 4.09375 -3.015625 3.90625 -3.453125 3.4375 -3.9375 C 3.015625 -4.359375 2.46875 -4.578125 1.328125 -4.78125 Z M 1.734375 -5.59375 "/>
</symbol>
<symbol overflow="visible" id="glyph0-7">
<path style="stroke:none;" d="M 2.78125 -3.5625 C 3.734375 -4.078125 4.0625 -4.46875 4.0625 -5.125 C 4.0625 -5.921875 3.390625 -6.484375 2.421875 -6.484375 C 1.375 -6.484375 0.59375 -5.84375 0.59375 -4.96875 C 0.59375 -4.34375 0.78125 -4.0625 1.78125 -3.1875 C 0.734375 -2.390625 0.53125 -2.109375 0.53125 -1.453125 C 0.53125 -0.515625 1.28125 0.140625 2.375 0.140625 C 3.53125 0.140625 4.265625 -0.5 4.265625 -1.484375 C 4.265625 -2.21875 3.9375 -2.6875 2.78125 -3.5625 Z M 2.609375 -2.578125 C 3.3125 -2.078125 3.546875 -1.734375 3.546875 -1.1875 C 3.546875 -0.5625 3.109375 -0.140625 2.484375 -0.140625 C 1.75 -0.140625 1.265625 -0.6875 1.265625 -1.515625 C 1.265625 -2.140625 1.46875 -2.53125 2.03125 -3 Z M 2.5 -3.734375 C 1.65625 -4.28125 1.3125 -4.734375 1.3125 -5.265625 C 1.3125 -5.828125 1.734375 -6.21875 2.34375 -6.21875 C 3 -6.21875 3.40625 -5.796875 3.40625 -5.125 C 3.40625 -4.546875 3.15625 -4.15625 2.5 -3.734375 Z M 2.5 -3.734375 "/>
</symbol>
<symbol overflow="visible" id="glyph1-0">
<path style="stroke:none;" d=""/>
</symbol>
<symbol overflow="visible" id="glyph1-1">
<path style="stroke:none;" d="M 5.84375 -0.1875 C 5.203125 -0.28125 5.140625 -0.375 5.125 -1.21875 L 5.125 -3.609375 C 5.125 -4.875 4.625 -5.515625 3.640625 -5.515625 C 2.9375 -5.515625 2.4375 -5.234375 1.890625 -4.515625 L 1.890625 -8.15625 L 1.828125 -8.203125 C 1.40625 -8.046875 1.109375 -7.953125 0.4375 -7.765625 L 0.125 -7.671875 L 0.125 -7.46875 C 0.171875 -7.484375 0.1875 -7.484375 0.265625 -7.484375 C 0.78125 -7.484375 0.875 -7.390625 0.875 -6.875 L 0.875 -1.21875 C 0.859375 -0.359375 0.796875 -0.265625 0.109375 -0.1875 L 0.109375 0 L 2.703125 0 L 2.703125 -0.1875 C 2 -0.234375 1.90625 -0.375 1.890625 -1.21875 L 1.890625 -4.109375 C 2.390625 -4.671875 2.75 -4.875 3.234375 -4.875 C 3.8125 -4.875 4.109375 -4.4375 4.109375 -3.59375 L 4.109375 -1.21875 C 4.09375 -0.375 3.984375 -0.234375 3.296875 -0.1875 L 3.296875 0 L 5.84375 0 Z M 5.84375 -0.1875 "/>
</symbol>
<symbol overflow="visible" id="glyph1-2">
<path style="stroke:none;" d="M 5.296875 -0.796875 C 5.09375 -0.625 4.953125 -0.5625 4.78125 -0.5625 C 4.5 -0.5625 4.421875 -0.734375 4.421875 -1.265625 L 4.421875 -3.59375 C 4.421875 -4.21875 4.359375 -4.578125 4.171875 -4.859375 C 3.90625 -5.296875 3.390625 -5.515625 2.6875 -5.515625 C 1.5625 -5.515625 0.671875 -4.9375 0.671875 -4.171875 C 0.671875 -3.90625 0.90625 -3.65625 1.1875 -3.65625 C 1.46875 -3.65625 1.734375 -3.90625 1.734375 -4.15625 C 1.734375 -4.21875 1.71875 -4.265625 1.703125 -4.359375 C 1.6875 -4.46875 1.671875 -4.5625 1.671875 -4.640625 C 1.671875 -4.96875 2.046875 -5.234375 2.53125 -5.234375 C 3.125 -5.234375 3.4375 -4.890625 3.4375 -4.234375 L 3.4375 -3.5 C 1.609375 -2.765625 1.390625 -2.65625 0.875 -2.203125 C 0.609375 -1.96875 0.4375 -1.5625 0.4375 -1.15625 C 0.4375 -0.40625 0.96875 0.125 1.703125 0.125 C 2.234375 0.125 2.71875 -0.125 3.453125 -0.75 C 3.515625 -0.125 3.734375 0.125 4.21875 0.125 C 4.625 0.125 4.890625 -0.03125 5.296875 -0.484375 Z M 3.4375 -1.46875 C 3.4375 -1.109375 3.390625 -0.984375 3.125 -0.84375 C 2.828125 -0.671875 2.515625 -0.578125 2.25 -0.578125 C 1.84375 -0.578125 1.5 -0.984375 1.5 -1.5 L 1.5 -1.546875 C 1.515625 -2.265625 2.046875 -2.71875 3.4375 -3.21875 Z M 3.4375 -1.46875 "/>
</symbol>
<symbol overflow="visible" id="glyph1-3">
<path style="stroke:none;" d="M 3.0625 -5.40625 L 1.84375 -5.40625 L 1.84375 -6.796875 C 1.84375 -6.90625 1.828125 -6.953125 1.765625 -6.953125 C 1.0625 -5.9375 0.703125 -5.53125 0.359375 -5.328125 C 0.234375 -5.25 0.15625 -5.171875 0.15625 -5.09375 C 0.15625 -5.0625 0.171875 -5.046875 0.203125 -5.015625 L 0.84375 -5.015625 L 0.84375 -1.40625 C 0.84375 -0.390625 1.203125 0.125 1.90625 0.125 C 2.5 0.125 2.953125 -0.171875 3.34375 -0.796875 L 3.1875 -0.921875 C 2.921875 -0.609375 2.734375 -0.5 2.46875 -0.5 C 2.03125 -0.5 1.84375 -0.828125 1.84375 -1.578125 L 1.84375 -5.015625 L 3.0625 -5.015625 Z M 3.0625 -5.40625 "/>
</symbol>
<symbol overflow="visible" id="glyph1-4">
<path style="stroke:none;" d="M 3.546875 -8.109375 C 2.65625 -7.53125 2.296875 -7.21875 1.84375 -6.671875 C 1 -5.625 0.578125 -4.421875 0.578125 -3.03125 C 0.578125 -1.484375 1.015625 -0.328125 2.078125 0.90625 C 2.5625 1.46875 2.875 1.734375 3.5 2.125 L 3.640625 1.9375 C 2.6875 1.171875 2.359375 0.75 2.03125 -0.140625 C 1.734375 -0.953125 1.609375 -1.84375 1.609375 -3.0625 C 1.609375 -4.3125 1.765625 -5.3125 2.09375 -6.046875 C 2.421875 -6.796875 2.78125 -7.21875 3.640625 -7.921875 Z M 3.546875 -8.109375 "/>
</symbol>
<symbol overflow="visible" id="glyph1-5">
<path style="stroke:none;" d="M 7.90625 -0.234375 C 7.453125 -0.265625 7.21875 -0.390625 6.859375 -0.796875 L 4.390625 -3.828125 C 5.921875 -4.125 6.5625 -4.734375 6.5625 -5.828125 C 6.5625 -6.34375 6.40625 -6.796875 6.09375 -7.140625 C 5.640625 -7.625 4.625 -7.9375 3.515625 -7.9375 L 0.203125 -7.9375 L 0.203125 -7.71875 C 1.09375 -7.625 1.21875 -7.515625 1.21875 -6.640625 L 1.21875 -1.4375 C 1.21875 -0.421875 1.109375 -0.296875 0.203125 -0.234375 L 0.203125 0 L 3.53125 0 L 3.53125 -0.234375 C 2.609375 -0.28125 2.453125 -0.4375 2.453125 -1.3125 L 2.453125 -3.671875 L 3.125 -3.703125 L 5.96875 0 L 7.90625 0 Z M 2.453125 -7.0625 C 2.453125 -7.40625 2.578125 -7.5 3.0625 -7.5 C 4.5625 -7.5 5.25 -6.984375 5.25 -5.859375 C 5.25 -5.25 5 -4.75 4.578125 -4.53125 C 4.015625 -4.21875 3.59375 -4.140625 2.453125 -4.109375 Z M 2.453125 -7.0625 "/>
</symbol>
<symbol overflow="visible" id="glyph1-6">
<path style="stroke:none;" d="M 0.453125 2.125 C 1.34375 1.53125 1.703125 1.234375 2.140625 0.6875 C 3 -0.359375 3.421875 -1.5625 3.421875 -2.96875 C 3.421875 -4.5 2.96875 -5.65625 1.921875 -6.890625 C 1.421875 -7.46875 1.109375 -7.734375 0.484375 -8.109375 L 0.34375 -7.921875 C 1.3125 -7.15625 1.625 -6.75 1.96875 -5.84375 C 2.25 -5.046875 2.390625 -4.140625 2.390625 -2.921875 C 2.390625 -1.671875 2.234375 -0.6875 1.90625 0.046875 C 1.578125 0.796875 1.21875 1.234375 0.34375 1.9375 Z M 0.453125 2.125 "/>
</symbol>
<symbol overflow="visible" id="glyph2-0">
<path style="stroke:none;" d=""/>
</symbol>
<symbol overflow="visible" id="glyph2-1">
<path style="stroke:none;" d="M 8.5625 -0.25 C 8.078125 -0.28125 7.8125 -0.421875 7.4375 -0.859375 L 4.765625 -4.140625 C 6.40625 -4.46875 7.109375 -5.125 7.109375 -6.3125 C 7.109375 -6.875 6.9375 -7.359375 6.609375 -7.734375 C 6.109375 -8.265625 5.015625 -8.609375 3.8125 -8.609375 L 0.21875 -8.609375 L 0.21875 -8.359375 C 1.1875 -8.25 1.3125 -8.140625 1.328125 -7.1875 L 1.328125 -1.5625 C 1.3125 -0.453125 1.203125 -0.328125 0.21875 -0.25 L 0.21875 0 L 3.828125 0 L 3.828125 -0.25 C 2.828125 -0.3125 2.671875 -0.46875 2.65625 -1.421875 L 2.65625 -3.984375 L 3.375 -4 L 6.46875 0 L 8.5625 0 Z M 2.65625 -7.65625 C 2.65625 -8.015625 2.796875 -8.125 3.3125 -8.125 C 4.9375 -8.125 5.6875 -7.5625 5.6875 -6.34375 C 5.6875 -5.6875 5.421875 -5.140625 4.953125 -4.90625 C 4.359375 -4.5625 3.90625 -4.484375 2.65625 -4.453125 Z M 2.65625 -7.65625 "/>
</symbol>
<symbol overflow="visible" id="glyph2-2">
<path style="stroke:none;" d="M 1.203125 -3.828125 L 3.0625 -7.5625 L 4.890625 -3.828125 L 5.765625 -3.828125 L 3.4375 -8.546875 L 2.671875 -8.546875 L 0.328125 -3.828125 Z M 1.203125 -3.828125 "/>
</symbol>
<symbol overflow="visible" id="glyph2-3">
<path style="stroke:none;" d="M 1.53125 0 L 5.125 0 L 5.125 -0.1875 C 4.125 -0.1875 3.90625 -0.34375 3.890625 -0.96875 L 3.890625 -8.765625 L 3.78125 -8.78125 L 1.4375 -7.609375 L 1.4375 -7.421875 C 1.953125 -7.625 2.265625 -7.703125 2.375 -7.703125 C 2.65625 -7.703125 2.765625 -7.515625 2.765625 -7.09375 L 2.765625 -1.203125 C 2.75 -0.390625 2.515625 -0.203125 1.53125 -0.1875 Z M 1.53125 0 "/>
</symbol>
<symbol overflow="visible" id="glyph2-4">
<path style="stroke:none;" d="M 1.625 -1.296875 C 1.234375 -1.296875 0.90625 -0.96875 0.90625 -0.5625 C 0.90625 -0.1875 1.234375 0.140625 1.609375 0.140625 C 2.015625 0.140625 2.359375 -0.171875 2.359375 -0.5625 C 2.359375 -0.96875 2.015625 -1.296875 1.625 -1.296875 Z M 1.625 -1.296875 "/>
</symbol>
<symbol overflow="visible" id="glyph2-5">
<path style="stroke:none;" d="M 3.296875 -8.78125 C 2.59375 -8.78125 2.046875 -8.578125 1.5625 -8.109375 C 0.8125 -7.390625 0.3125 -5.890625 0.3125 -4.375 C 0.3125 -2.9375 0.734375 -1.4375 1.359375 -0.703125 C 1.828125 -0.125 2.5 0.1875 3.25 0.1875 C 3.90625 0.1875 4.46875 -0.03125 4.9375 -0.5 C 5.6875 -1.203125 6.1875 -2.71875 6.1875 -4.296875 C 6.1875 -6.953125 5 -8.78125 3.296875 -8.78125 Z M 3.265625 -8.453125 C 4.359375 -8.453125 4.9375 -6.984375 4.9375 -4.265625 C 4.9375 -1.546875 4.375 -0.15625 3.25 -0.15625 C 2.125 -0.15625 1.5625 -1.546875 1.5625 -4.25 C 1.5625 -7.015625 2.140625 -8.453125 3.265625 -8.453125 Z M 3.265625 -8.453125 "/>
</symbol>
<symbol overflow="visible" id="glyph2-6">
<path style="stroke:none;" d="M 2.359375 -7.578125 L 4.90625 -7.578125 C 5.125 -7.578125 5.15625 -7.59375 5.203125 -7.703125 L 5.6875 -8.859375 L 5.578125 -8.9375 C 5.375 -8.6875 5.265625 -8.609375 4.984375 -8.609375 L 2.265625 -8.609375 L 0.84375 -5.53125 C 0.828125 -5.5 0.828125 -5.484375 0.828125 -5.453125 C 0.828125 -5.375 0.890625 -5.359375 0.984375 -5.359375 C 1.40625 -5.359375 1.90625 -5.265625 2.453125 -5.09375 C 3.953125 -4.609375 4.625 -3.828125 4.625 -2.515625 C 4.625 -1.28125 3.84375 -0.296875 2.828125 -0.296875 C 2.5625 -0.296875 2.359375 -0.390625 1.96875 -0.671875 C 1.546875 -0.984375 1.265625 -1.109375 0.96875 -1.109375 C 0.59375 -1.109375 0.421875 -0.953125 0.421875 -0.625 C 0.421875 -0.125 1.015625 0.1875 2 0.1875 C 3.078125 0.1875 4.015625 -0.171875 4.6875 -0.828125 C 5.265625 -1.421875 5.53125 -2.15625 5.53125 -3.140625 C 5.53125 -4.078125 5.296875 -4.6875 4.65625 -5.328125 C 4.078125 -5.90625 3.34375 -6.203125 1.8125 -6.46875 Z M 2.359375 -7.578125 "/>
</symbol>
<symbol overflow="visible" id="glyph3-0">
<path style="stroke:none;" d="M 0.640625 2.296875 L 0.640625 -9.171875 L 7.140625 -9.171875 L 7.140625 2.296875 Z M 1.375 1.578125 L 6.421875 1.578125 L 6.421875 -8.4375 L 1.375 -8.4375 Z M 1.375 1.578125 "/>
</symbol>
<symbol overflow="visible" id="glyph3-1">
<path style="stroke:none;" d="M 9.515625 -6.453125 L 3.421875 -4.6875 L 9.515625 -2.953125 L 9.515625 -1.828125 L 1.375 -4.15625 L 1.375 -5.234375 L 9.515625 -7.5625 Z M 1.375 -1.078125 L 9.515625 -1.078125 L 9.515625 0 L 1.375 0 Z M 1.375 -1.078125 "/>
</symbol>
<symbol overflow="visible" id="glyph3-2">
<path style="stroke:none;" d="M 1.375 -6.40625 L 1.375 -7.546875 L 9.515625 -4.609375 L 9.515625 -3.546875 L 1.375 -0.59375 L 1.375 -1.75 L 7.921875 -4.0625 Z M 1.375 -6.40625 "/>
</symbol>
</g>
<clipPath id="clip1">
  <path d="M 5.976562 5.976562 L 619.1875 5.976562 L 619.1875 324.652344 L 5.976562 324.652344 Z M 5.976562 5.976562 "/>
</clipPath>
</defs>
<g id="surface210">
<path style="fill-rule:nonzero;fill:rgb(81.960784%,88.235294%,92.54902%);fill-opacity:1;stroke-width:0.533489;stroke-linecap:butt;stroke-linejoin:miter;stroke:rgb(70.196078%,80.392157%,87.843137%);stroke-opacity:1;stroke-miterlimit:10;" d="M 33.851562 323.078125 L 52.433594 323.078125 L 52.433594 316.515625 L 33.851562 316.515625 Z M 33.851562 323.078125 "/>
<path style="fill-rule:nonzero;fill:rgb(81.960784%,88.235294%,92.54902%);fill-opacity:1;stroke-width:0.533489;stroke-linecap:butt;stroke-linejoin:miter;stroke:rgb(70.196078%,80.392157%,87.843137%);stroke-opacity:1;stroke-miterlimit:10;" d="M 52.433594 323.078125 L 71.015625 323.078125 L 71.015625 257.765625 L 52.433594 257.765625 Z M 52.433594 323.078125 "/>
<path style="fill-rule:nonzero;fill:rgb(81.960784%,88.235294%,92.54902%);fill-opacity:1;stroke-width:0.533489;stroke-linecap:butt;stroke-linejoin:miter;stroke:rgb(70.196078%,80.392157%,87.843137%);stroke-opacity:1;stroke-miterlimit:10;" d="M 71.015625 323.078125 L 89.597656 323.078125 L 89.597656 149.214844 L 71.015625 149.214844 Z M 71.015625 323.078125 "/>
<path style="fill-rule:nonzero;fill:rgb(81.960784%,88.235294%,92.54902%);fill-opacity:1;stroke-width:0.533489;stroke-linecap:butt;stroke-linejoin:miter;stroke:rgb(70.196078%,80.392157%,87.843137%);stroke-opacity:1;stroke-miterlimit:10;" d="M 89.597656 323.078125 L 108.179688 323.078125 L 108.179688 48.710938 L 89.597656 48.710938 Z M 89.597656 323.078125 "/>
<path style="fill-rule:nonzero;fill:rgb(81.960784%,88.235294%,92.54902%);fill-opacity:1;stroke-width:0.533489;stroke-linecap:butt;stroke-linejoin:miter;stroke:rgb(70.196078%,80.392157%,87.843137%);stroke-opacity:1;stroke-miterlimit:10;" d="M 108.179688 323.078125 L 126.761719 323.078125 L 126.761719 12.03125 L 108.179688 12.03125 Z M 108.179688 323.078125 "/>
<path style="fill-rule:nonzero;fill:rgb(81.960784%,88.235294%,92.54902%);fill-opacity:1;stroke-width:0.533489;stroke-linecap:butt;stroke-linejoin:miter;stroke:rgb(70.196078%,80.392157%,87.843137%);stroke-opacity:1;stroke-miterlimit:10;" d="M 126.761719 323.078125 L 145.34375 323.078125 L 145.34375 7.558594 L 126.761719 7.558594 Z M 126.761719 323.078125 "/>
<path style="fill-rule:nonzero;fill:rgb(81.960784%,88.235294%,92.54902%);fill-opacity:1;stroke-width:0.533489;stroke-linecap:butt;stroke-linejoin:miter;stroke:rgb(70.196078%,80.392157%,87.843137%);stroke-opacity:1;stroke-miterlimit:10;" d="M 145.34375 323.078125 L 163.925781 323.078125 L 163.925781 33.203125 L 145.34375 33.203125 Z M 145.34375 323.078125 "/>
<path style="fill-rule:nonzero;fill:rgb(81.960784%,88.235294%,92.54902%);fill-opacity:1;stroke-width:0.533489;stroke-linecap:butt;stroke-linejoin:miter;stroke:rgb(70.196078%,80.392157%,87.843137%);stroke-opacity:1;stroke-miterlimit:10;" d="M 163.925781 323.078125 L 182.507812 323.078125 L 182.507812 94.339844 L 163.925781 94.339844 Z M 163.925781 323.078125 "/>
<path style="fill-rule:nonzero;fill:rgb(81.960784%,88.235294%,92.54902%);fill-opacity:1;stroke-width:0.533489;stroke-linecap:butt;stroke-linejoin:miter;stroke:rgb(70.196078%,80.392157%,87.843137%);stroke-opacity:1;stroke-miterlimit:10;" d="M 182.507812 323.078125 L 201.089844 323.078125 L 201.089844 159.652344 L 182.507812 159.652344 Z M 182.507812 323.078125 "/>
<path style="fill-rule:nonzero;fill:rgb(81.960784%,88.235294%,92.54902%);fill-opacity:1;stroke-width:0.533489;stroke-linecap:butt;stroke-linejoin:miter;stroke:rgb(70.196078%,80.392157%,87.843137%);stroke-opacity:1;stroke-miterlimit:10;" d="M 201.089844 323.078125 L 219.671875 323.078125 L 219.671875 207.070312 L 201.089844 207.070312 Z M 201.089844 323.078125 "/>
<path style="fill-rule:nonzero;fill:rgb(81.960784%,88.235294%,92.54902%);fill-opacity:1;stroke-width:0.533489;stroke-linecap:butt;stroke-linejoin:miter;stroke:rgb(70.196078%,80.392157%,87.843137%);stroke-opacity:1;stroke-miterlimit:10;" d="M 219.671875 323.078125 L 238.253906 323.078125 L 238.253906 244.347656 L 219.671875 244.347656 Z M 219.671875 323.078125 "/>
<path style="fill-rule:nonzero;fill:rgb(81.960784%,88.235294%,92.54902%);fill-opacity:1;stroke-width:0.533489;stroke-linecap:butt;stroke-linejoin:miter;stroke:rgb(70.196078%,80.392157%,87.843137%);stroke-opacity:1;stroke-miterlimit:10;" d="M 238.253906 323.078125 L 256.835938 323.078125 L 256.835938 266.117188 L 238.253906 266.117188 Z M 238.253906 323.078125 "/>
<path style="fill-rule:nonzero;fill:rgb(81.960784%,88.235294%,92.54902%);fill-opacity:1;stroke-width:0.533489;stroke-linecap:butt;stroke-linejoin:miter;stroke:rgb(70.196078%,80.392157%,87.843137%);stroke-opacity:1;stroke-miterlimit:10;" d="M 256.835938 323.078125 L 275.417969 323.078125 L 275.417969 288.484375 L 256.835938 288.484375 Z M 256.835938 323.078125 "/>
<path style="fill-rule:nonzero;fill:rgb(81.960784%,88.235294%,92.54902%);fill-opacity:1;stroke-width:0.533489;stroke-linecap:butt;stroke-linejoin:miter;stroke:rgb(70.196078%,80.392157%,87.843137%);stroke-opacity:1;stroke-miterlimit:10;" d="M 275.417969 323.078125 L 294 323.078125 L 294 302.5 L 275.417969 302.5 Z M 275.417969 323.078125 "/>
<path style="fill-rule:nonzero;fill:rgb(81.960784%,88.235294%,92.54902%);fill-opacity:1;stroke-width:0.533489;stroke-linecap:butt;stroke-linejoin:miter;stroke:rgb(70.196078%,80.392157%,87.843137%);stroke-opacity:1;stroke-miterlimit:10;" d="M 294 323.078125 L 312.582031 323.078125 L 312.582031 307.570312 L 294 307.570312 Z M 294 323.078125 "/>
<path style="fill-rule:nonzero;fill:rgb(81.960784%,88.235294%,92.54902%);fill-opacity:1;stroke-width:0.533489;stroke-linecap:butt;stroke-linejoin:miter;stroke:rgb(70.196078%,80.392157%,87.843137%);stroke-opacity:1;stroke-miterlimit:10;" d="M 312.582031 323.078125 L 331.164062 323.078125 L 331.164062 317.710938 L 312.582031 317.710938 Z M 312.582031 323.078125 "/>
<path style="fill-rule:nonzero;fill:rgb(81.960784%,88.235294%,92.54902%);fill-opacity:1;stroke-width:0.533489;stroke-linecap:butt;stroke-linejoin:miter;stroke:rgb(70.196078%,80.392157%,87.843137%);stroke-opacity:1;stroke-miterlimit:10;" d="M 331.164062 323.078125 L 349.746094 323.078125 L 349.746094 318.902344 L 331.164062 318.902344 Z M 331.164062 323.078125 "/>
<path style="fill-rule:nonzero;fill:rgb(81.960784%,88.235294%,92.54902%);fill-opacity:1;stroke-width:0.533489;stroke-linecap:butt;stroke-linejoin:miter;stroke:rgb(70.196078%,80.392157%,87.843137%);stroke-opacity:1;stroke-miterlimit:10;" d="M 349.746094 323.078125 L 368.328125 323.078125 L 368.328125 319.203125 L 349.746094 319.203125 Z M 349.746094 323.078125 "/>
<path style="fill-rule:nonzero;fill:rgb(81.960784%,88.235294%,92.54902%);fill-opacity:1;stroke-width:0.533489;stroke-linecap:butt;stroke-linejoin:miter;stroke:rgb(70.196078%,80.392157%,87.843137%);stroke-opacity:1;stroke-miterlimit:10;" d="M 368.328125 323.078125 L 386.910156 323.078125 L 386.910156 322.183594 L 368.328125 322.183594 Z M 368.328125 323.078125 "/>
<path style="fill-rule:nonzero;fill:rgb(81.960784%,88.235294%,92.54902%);fill-opacity:1;stroke-width:0.533489;stroke-linecap:butt;stroke-linejoin:miter;stroke:rgb(70.196078%,80.392157%,87.843137%);stroke-opacity:1;stroke-miterlimit:10;" d="M 386.910156 323.078125 L 405.492188 323.078125 L 405.492188 322.480469 L 386.910156 322.480469 Z M 386.910156 323.078125 "/>
<path style="fill:none;stroke-width:0.533489;stroke-linecap:butt;stroke-linejoin:miter;stroke:rgb(70.196078%,80.392157%,87.843137%);stroke-opacity:1;stroke-miterlimit:10;" d="M 405.492188 323.078125 L 424.074219 323.078125 Z M 405.492188 323.078125 "/>
<path style="fill-rule:nonzero;fill:rgb(81.960784%,88.235294%,92.54902%);fill-opacity:1;stroke-width:0.533489;stroke-linecap:butt;stroke-linejoin:miter;stroke:rgb(70.196078%,80.392157%,87.843137%);stroke-opacity:1;stroke-miterlimit:10;" d="M 424.074219 323.078125 L 442.65625 323.078125 L 442.65625 322.78125 L 424.074219 322.78125 Z M 424.074219 323.078125 "/>
<path style="fill:none;stroke-width:0.533489;stroke-linecap:butt;stroke-linejoin:miter;stroke:rgb(70.196078%,80.392157%,87.843137%);stroke-opacity:1;stroke-miterlimit:10;" d="M 442.65625 323.078125 L 461.238281 323.078125 Z M 442.65625 323.078125 "/>
<path style="fill-rule:nonzero;fill:rgb(81.960784%,88.235294%,92.54902%);fill-opacity:1;stroke-width:0.533489;stroke-linecap:butt;stroke-linejoin:miter;stroke:rgb(70.196078%,80.392157%,87.843137%);stroke-opacity:1;stroke-miterlimit:10;" d="M 461.238281 323.078125 L 479.820312 323.078125 L 479.820312 322.78125 L 461.238281 322.78125 Z M 461.238281 323.078125 "/>
<path style="fill:none;stroke-width:0.533489;stroke-linecap:butt;stroke-linejoin:miter;stroke:rgb(70.196078%,80.392157%,87.843137%);stroke-opacity:1;stroke-miterlimit:10;" d="M 479.820312 323.078125 L 498.402344 323.078125 Z M 479.820312 323.078125 "/>
<path style="fill:none;stroke-width:0.533489;stroke-linecap:butt;stroke-linejoin:miter;stroke:rgb(70.196078%,80.392157%,87.843137%);stroke-opacity:1;stroke-miterlimit:10;" d="M 498.402344 323.078125 L 516.984375 323.078125 Z M 498.402344 323.078125 "/>
<path style="fill:none;stroke-width:0.533489;stroke-linecap:butt;stroke-linejoin:miter;stroke:rgb(70.196078%,80.392157%,87.843137%);stroke-opacity:1;stroke-miterlimit:10;" d="M 516.984375 323.078125 L 535.566406 323.078125 Z M 516.984375 323.078125 "/>
<path style="fill:none;stroke-width:0.533489;stroke-linecap:butt;stroke-linejoin:miter;stroke:rgb(70.196078%,80.392157%,87.843137%);stroke-opacity:1;stroke-miterlimit:10;" d="M 535.566406 323.078125 L 554.148438 323.078125 Z M 535.566406 323.078125 "/>
<path style="fill:none;stroke-width:0.533489;stroke-linecap:butt;stroke-linejoin:miter;stroke:rgb(70.196078%,80.392157%,87.843137%);stroke-opacity:1;stroke-miterlimit:10;" d="M 554.148438 323.078125 L 572.730469 323.078125 Z M 554.148438 323.078125 "/>
<path style="fill-rule:nonzero;fill:rgb(81.960784%,88.235294%,92.54902%);fill-opacity:1;stroke-width:0.533489;stroke-linecap:butt;stroke-linejoin:miter;stroke:rgb(70.196078%,80.392157%,87.843137%);stroke-opacity:1;stroke-miterlimit:10;" d="M 572.734375 323.078125 L 591.316406 323.078125 L 591.316406 322.78125 L 572.734375 322.78125 Z M 572.734375 323.078125 "/>
<g clip-path="url(#clip1)" clip-rule="nonzero">
<path style="fill:none;stroke-width:1.163976;stroke-linecap:round;stroke-linejoin:round;stroke:rgb(0%,0%,0%);stroke-opacity:1;stroke-miterlimit:10;" d="M 5.976562 324.652344 L 619.1875 324.652344 L 619.1875 5.976562 L 5.976562 5.976562 Z M 5.976562 324.652344 "/>
</g>
<path style="fill:none;stroke-width:0.853583;stroke-linecap:butt;stroke-linejoin:round;stroke:rgb(0%,0%,0%);stroke-opacity:1;stroke-miterlimit:10;" d="M 5.976562 324.652344 L 5.976562 5.976562 "/>
<path style="fill:none;stroke-width:0.853583;stroke-linecap:butt;stroke-linejoin:round;stroke:rgb(0%,0%,0%);stroke-opacity:1;stroke-miterlimit:10;" d="M 5.976562 324.652344 L 619.1875 324.652344 "/>
<path style="fill:none;stroke-width:0.640187;stroke-linecap:butt;stroke-linejoin:round;stroke:rgb(20%,20%,20%);stroke-opacity:1;stroke-miterlimit:10;" d="M 25.09375 327.644531 L 25.09375 324.652344 "/>
<path style="fill:none;stroke-width:0.640187;stroke-linecap:butt;stroke-linejoin:round;stroke:rgb(20%,20%,20%);stroke-opacity:1;stroke-miterlimit:10;" d="M 168.160156 327.644531 L 168.160156 324.652344 "/>
<path style="fill:none;stroke-width:0.640187;stroke-linecap:butt;stroke-linejoin:round;stroke:rgb(20%,20%,20%);stroke-opacity:1;stroke-miterlimit:10;" d="M 311.226562 327.644531 L 311.226562 324.652344 "/>
<path style="fill:none;stroke-width:0.640187;stroke-linecap:butt;stroke-linejoin:round;stroke:rgb(20%,20%,20%);stroke-opacity:1;stroke-miterlimit:10;" d="M 454.296875 327.644531 L 454.296875 324.652344 "/>
<path style="fill:none;stroke-width:0.640187;stroke-linecap:butt;stroke-linejoin:round;stroke:rgb(20%,20%,20%);stroke-opacity:1;stroke-miterlimit:10;" d="M 597.363281 327.644531 L 597.363281 324.652344 "/>
<g style="fill:rgb(0%,0%,0%);fill-opacity:1;">
  <use xlink:href="#glyph0-1" x="14.09375" y="336.59082"/>
  <use xlink:href="#glyph0-2" x="19.09375" y="336.59082"/>
  <use xlink:href="#glyph0-3" x="21.09375" y="336.59082"/>
  <use xlink:href="#glyph0-3" x="26.09375" y="336.59082"/>
  <use xlink:href="#glyph0-3" x="31.09375" y="336.59082"/>
</g>
<g style="fill:rgb(0%,0%,0%);fill-opacity:1;">
  <use xlink:href="#glyph0-4" x="157.160156" y="336.59082"/>
  <use xlink:href="#glyph0-2" x="162.160156" y="336.59082"/>
  <use xlink:href="#glyph0-1" x="164.160156" y="336.59082"/>
  <use xlink:href="#glyph0-1" x="169.160156" y="336.59082"/>
  <use xlink:href="#glyph0-5" x="174.160156" y="336.59082"/>
</g>
<g style="fill:rgb(0%,0%,0%);fill-opacity:1;">
  <use xlink:href="#glyph0-4" x="300.226562" y="336.59082"/>
  <use xlink:href="#glyph0-2" x="305.226562" y="336.59082"/>
  <use xlink:href="#glyph0-1" x="307.226562" y="336.59082"/>
  <use xlink:href="#glyph0-1" x="312.226562" y="336.59082"/>
  <use xlink:href="#glyph0-6" x="317.226562" y="336.59082"/>
</g>
<g style="fill:rgb(0%,0%,0%);fill-opacity:1;">
  <use xlink:href="#glyph0-4" x="443.296875" y="336.59082"/>
  <use xlink:href="#glyph0-2" x="448.296875" y="336.59082"/>
  <use xlink:href="#glyph0-1" x="450.296875" y="336.59082"/>
  <use xlink:href="#glyph0-1" x="455.296875" y="336.59082"/>
  <use xlink:href="#glyph0-7" x="460.296875" y="336.59082"/>
</g>
<g style="fill:rgb(0%,0%,0%);fill-opacity:1;">
  <use xlink:href="#glyph0-4" x="586.363281" y="336.59082"/>
  <use xlink:href="#glyph0-2" x="591.363281" y="336.59082"/>
  <use xlink:href="#glyph0-1" x="593.363281" y="336.59082"/>
  <use xlink:href="#glyph0-4" x="598.363281" y="336.59082"/>
  <use xlink:href="#glyph0-4" x="603.363281" y="336.59082"/>
</g>
<g style="fill:rgb(0%,0%,0%);fill-opacity:1;">
  <use xlink:href="#glyph1-1" x="297.582031" y="350.219727"/>
  <use xlink:href="#glyph1-2" x="303.582031" y="350.219727"/>
  <use xlink:href="#glyph1-3" x="308.582031" y="350.219727"/>
  <use xlink:href="#glyph1-4" x="311.582031" y="350.219727"/>
  <use xlink:href="#glyph1-5" x="315.582031" y="350.219727"/>
  <use xlink:href="#glyph1-6" x="323.582031" y="350.219727"/>
</g>
<path style="fill-rule:nonzero;fill:rgb(81.960784%,88.235294%,92.54902%);fill-opacity:1;stroke-width:0.533489;stroke-linecap:butt;stroke-linejoin:miter;stroke:rgb(70.196078%,80.392157%,87.843137%);stroke-opacity:1;stroke-miterlimit:10;" d="M 637.476562 155.011719 L 654.046875 155.011719 L 654.046875 135.820312 L 637.476562 135.820312 Z M 637.476562 155.011719 "/>
<g style="fill:rgb(0%,0%,0%);fill-opacity:1;">
  <use xlink:href="#glyph2-1" x="660.378906" y="152.746094"/>
</g>
<g style="fill:rgb(0%,0%,0%);fill-opacity:1;">
  <use xlink:href="#glyph2-2" x="661.878906" y="145.84375"/>
</g>
<g style="fill:rgb(0%,0%,0%);fill-opacity:1;">
  <use xlink:href="#glyph3-1" x="672.710938" y="151.93457"/>
</g>
<g style="fill:rgb(0%,0%,0%);fill-opacity:1;">
  <use xlink:href="#glyph2-3" x="687.042969" y="152.746094"/>
  <use xlink:href="#glyph2-4" x="693.042969" y="152.746094"/>
  <use xlink:href="#glyph2-5" x="696.042969" y="152.746094"/>
  <use xlink:href="#glyph2-6" x="702.042969" y="152.746094"/>
</g>
<g style="fill:rgb(0%,0%,0%);fill-opacity:1;">
  <use xlink:href="#glyph2-1" x="660.378906" y="172.644531"/>
</g>
<g style="fill:rgb(0%,0%,0%);fill-opacity:1;">
  <use xlink:href="#glyph2-2" x="661.878906" y="165.746094"/>
</g>
<g style="fill:rgb(0%,0%,0%);fill-opacity:1;">
  <use xlink:href="#glyph3-1" x="672.710938" y="171.833008"/>
</g>
<g style="fill:rgb(0%,0%,0%);fill-opacity:1;">
  <use xlink:href="#glyph2-3" x="687.042969" y="172.644531"/>
  <use xlink:href="#glyph2-4" x="693.042969" y="172.644531"/>
  <use xlink:href="#glyph2-3" x="696.042969" y="172.644531"/>
</g>
<g style="fill:rgb(0%,0%,0%);fill-opacity:1;">
  <use xlink:href="#glyph2-1" x="660.378906" y="192.542969"/>
</g>
<g style="fill:rgb(0%,0%,0%);fill-opacity:1;">
  <use xlink:href="#glyph2-2" x="661.878906" y="185.644531"/>
</g>
<g style="fill:rgb(0%,0%,0%);fill-opacity:1;">
  <use xlink:href="#glyph3-2" x="672.710938" y="191.731445"/>
</g>
<g style="fill:rgb(0%,0%,0%);fill-opacity:1;">
  <use xlink:href="#glyph2-3" x="687.042969" y="192.542969"/>
  <use xlink:href="#glyph2-4" x="693.042969" y="192.542969"/>
  <use xlink:href="#glyph2-3" x="696.042969" y="192.542969"/>
</g>
</g>
</svg>
